<?xml version="1.0" ?><svg id="Layer_3" style="enable-background:new 0 0 64 64;" version="1.1" viewBox="0 0 64 64" xml:space="preserve" xmlns="http://www.w3.org/2000/svg" xmlns:xlink="http://www.w3.org/1999/xlink"><g><path d="M62,1H49H15H2C1.447,1,1,1.447,1,2v24v4v28v4c0,0.553,0.447,1,1,1h60c0.553,0,1-0.447,1-1v-4V30v-4V2   C63,1.447,62.553,1,62,1z M48.16,15H15.84c0.094-0.655,0.16-1.319,0.16-2V3h32v10C48,13.681,48.065,14.345,48.16,15z M15.41,17   H48.59c1.013,3.391,3.282,6.235,6.261,8.015C53.267,25.095,52,26.397,52,28c0,1.654,1.346,3,3,3h0.915l-1.141,14H49V34   c0-0.553-0.447-1-1-1H34c-0.553,0-1,0.447-1,1v11h-2V34c0-0.553-0.447-1-1-1H16c-0.553,0-1,0.447-1,1v11H9.228L8.085,31H9   c1.654,0,3-1.346,3-3c0-1.603-1.267-2.905-2.851-2.985C12.129,23.235,14.397,20.391,15.41,17z M61,29h-4h-2c-0.552,0-1-0.448-1-1   s0.448-1,1-1h6V29z M42,46v5h-2v-5c0-0.553-0.447-1-1-1h-4V35h12v10h-4C42.447,45,42,45.447,42,46z M24,46v5h-2v-5   c0-0.553-0.447-1-1-1h-4V35h12v10h-4C24.447,45,24,45.447,24,46z M7,29H3v-2h6c0.552,0,1,0.448,1,1s-0.448,1-1,1H7z M3,31h3.078   L8,54.5C8,55.879,6.879,57,5.5,57H3V31z M9.391,47H20v10H9.225c0.488-0.731,0.773-1.617,0.772-2.581L9.391,47z M22,53h2v4h-2V53z    M26,47h12v10H26V47z M40,53h2v4h-2V53z M44,47h10.611L54,54.5c0,0.925,0.282,1.784,0.762,2.5H44V47z M55.997,54.581L57.922,31H61   v26h-2.5C57.121,57,56,55.879,55.997,54.581z M61,3v21.959C54.85,24.449,50,19.28,50,13V3H61z M3,3h11v10   c0,6.28-4.85,11.449-11,11.959V3z M3,61v-2h2.5h53H61v2H3z"/><path d="M45,5H19c-0.553,0-1,0.447-1,1v6c0,0.553,0.447,1,1,1h26c0.553,0,1-0.447,1-1V6C46,5.447,45.553,5,45,5z M44,11H20V7h24V11   z"/></g></svg>